<svg version="1" xmlns="http://www.w3.org/2000/svg" width="397.333" height="397.333" viewBox="0 0 298.000000 298.000000"><path d="M170 21.8c-1.4.3-5.1 3.1-8.7 6.8-14.4 14.8-34.6 23.7-65.3 28.9-4.7.8-12.3 1.7-16.9 2-4.6.3-9 1-9.7 1.5-.7.6-3.4 4.3-6 8.3-2.7 4-5.1 7.4-5.5 7.7-.3.3-1.1 1.5-1.8 2.7L54.9 82h31.2L83 86.4c-1.6 2.5-3 4.9-3 5.5 0 .6-.3 1.1-.8 1.1-.4 0-1.6 1.7-2.7 3.7s-2.5 4.2-3.2 4.9c-.7.6-1.4 1.7-1.5 2.4-.2.7-1.3 2.4-2.5 3.8-1.3 1.4-2.3 2.9-2.3 3.4 0 .8-3.6 6.4-5 7.8-.3.3-1.4 2.1-2.4 4-1.1 1.9-2.4 3.9-2.8 4.5-2 2.4-5.8 8.7-5.8 9.5 0 .4-.4 1-.8 1.2-.4.1-2.1 2.5-3.7 5.3-1.5 2.7-3.1 5.2-3.4 5.5-1.3 1.1-8.1 12-8.1 13 0 .5-.4 1-.9 1s-1.4 1.3-2.1 3c-.7 1.7-1.6 3-2.1 3s-.9.6-.9 1.3c0 .7-.9 2.3-2 3.5-1.1 1.2-2 2.3-2 2.5 0 .3-1 2.6-2.2 5.3-1.2 2.7-2.3 5.1-2.3 5.4-.1.3-.5 1.2-.9 2.1-.4.9-.8 2.7-1 4.1-.1 1.3-.5 2.8-.7 3.3-.3.6-.4 3.5-.2 6.5.6 8.5.7 9 1.6 9 .4 0 .5.4.2 1-.3.5-.1 1 .4 1 .6 0 1.1.6 1.1 1.2.1 1.3 5.5 7.8 6.5 7.8.3 0 1.8.9 3.3 1.9 3.4 2.5 13.5 5.8 20.4 6.8 6.6 1 27.6 1 34.3.1 20.4-2.7 39.3-10.8 43.5-18.7 1.2-2.3 1.1-2.4-1.1-1.7-1.3.4-3.5.9-4.9 1.2-1.4.2-3.1.7-3.8.9-1 .4-9.4 1.7-11.2 1.7-5.5.2-8.9-.6-11.4-2.5-2.4-1.9-2.9-3.2-3.1-7.5-.2-2.9.1-5.2.6-5.2.6 0 .8-.4.5-.9-.7-1 4.4-13.4 5.6-13.9.4-.2.8-.8.8-1.3 0-1.2 9.9-16.1 11.4-17.1.6-.4.8-.8.4-.8-.7 0 9.7-16.9 11.1-18 .3-.3 1.5-2.2 2.6-4.3 1.1-2 2.2-3.7 2.6-3.7.4 0 .9-.8 1.3-1.8.5-1.7 2.6-5.2 3.6-6.2s3.1-4.5 3.6-6.3c.4-.9.9-1.7 1.3-1.7.3 0 1.7-2 3.1-4.5 1.4-2.5 2.8-4.5 3.1-4.5.4 0 .9-.8 1.3-1.8.5-1.6 2.1-4.3 3.9-6.6.5-.6 2.8-4.3 5.2-8.1 2.4-3.9 4.9-7.5 5.5-8.2.5-.7 1.5-2.4 2.2-3.8.6-1.4 1.5-2.5 2-2.5.4 0 .8-.5.8-1.1 0-1.8 6-8.9 7.6-8.9.8 0 1.4-.4 1.4-.8 0-1.9 15.1-8.3 26.8-11.2 2.3-.6 4.2-1.2 4.2-1.4 0-.1-5.6-.2-12.5-.1-8.7 0-12.5-.3-12.5-1.1 0-.6 1.3-2.9 2.9-5.1 1.6-2.3 2.7-4.4 2.4-4.7-.4-.3-.2-.6.3-.6s2-2 3.4-4.5 2.8-4.5 3.2-4.5c.5 0 .8-.5.8-1.1 0-.6 1.3-2.9 2.9-5.2 1.6-2.3 3.8-5.8 4.9-7.8l2-3.6-12.2-.2c-6.6-.1-13.7-.3-15.6-.4-1.9-.1-4.6 0-6 .1z"/><path d="M217.8 64.5c-.1.1-2.5.6-5.3.9-9.1 1.2-18.9 3.8-25 6.6-5.9 2.6-16.6 9-15.2 9 .4 0 0 1.1-.9 2.5s-1.5 2.5-1.2 2.5c.2 0 3.7-.9 7.8-2.1 12.4-3.5 27-2.6 27 1.7 0 .8.4 1.4.8 1.4.5 0 .9 2.5.8 5.5 0 3-.3 5.5-.7 5.5-.3 0-.6.6-.6 1.3 0 2-5.5 13.7-6.5 13.7-.4 0-.7.3-.6.7.2 1.1-3.5 7.3-4.4 7.3-.5 0-.8.6-.8 1.3 0 .7-.8 2.2-1.7 3.3-1 1-2.4 3.1-3.2 4.6-.8 1.5-2.3 3.7-3.3 4.8-1 1.1-1.9 2.3-2 2.7-.1.9-3.2 5.8-10 16.1-2.6 4.1-4.8 7.5-4.8 7.7 0 .4-8.6 13.6-10 15.2-.5.7-1.7 2.8-2.7 4.7-.9 2-2 3.6-2.4 3.6-.3 0-1.2 1.3-1.9 3-.7 1.6-1.6 3-2.1 3s-.9.6-.9 1.3c0 .7-.8 2.2-1.7 3.3-1 1-2.7 3.6-3.8 5.6-1.1 2.1-2.3 3.8-2.7 3.8-.5 0-.8.7-.8 1.5s-.4 1.5-1 1.5c-.5 0-1 .5-1 1 0 .6-2.7 5.1-6 10.1s-6 9.2-6 9.4c0 .4-8.6 13.6-10 15.2-.5.7-1 1.6-1 2.1 0 .4-.9 1.8-2 3-1.2 1.2-1.8 2.2-1.5 2.2.5 0-2.4 5-3.5 6-.5.4-8.3 13-10.4 16.7-.5.8 4 1.1 17.6 1.1h18.2l5.3-5.8c4.7-5.1 7.9-7.6 19.3-15 3.5-2.2 19.3-8.6 26.5-10.5 8.3-2.3 9.6-2.6 13.1-2.9 1.7-.2 3.5-.6 4-.8.5-.3 3.8-.9 7.4-1.3 3.6-.5 7.6-.9 9-1.1 1.4-.2 4.9-.4 7.8-.5 4.6-.2 5.6-.6 7-2.8 2-3.2 3.2-4.7 5.4-7.1.9-1 1.4-2.1 1.1-2.4-.3-.3.2-.8 1.1-1.2.9-.3 1.3-1 1-1.5-.3-.5.2-1.2 1-1.5.9-.3 1.3-1 1-1.5-.3-.5-.1-.9.4-.9.6 0 1.2-.7 1.6-1.5.5-1.5-4.2-1.8-26.1-1.6-1.8 0-3.3-.5-3.3-1 0-.6 2.4-4.7 5.4-9.2 2.9-4.5 8.4-12.9 12.1-18.7 3.7-5.8 7.1-10.7 7.6-10.8.5-.2.7-.7.4-1.2-.2-.4.4-1.8 1.5-3 1.1-1.3 2-2.6 2-3 0-.4.9-1.7 2-3s2-2.8 2-3.5c0-.6.8-2 1.8-3.1.9-1 5.3-7.5 9.6-14.4 4.4-6.9 8.2-12.7 8.5-13 .3-.3 1.4-2.1 2.5-4 1-1.9 2.6-4.1 3.4-4.8.9-.6 1.3-1.2.9-1.2s.2-1.7 1.3-3.7c1.1-2.1 2-4.3 2-5 0-.7.4-1.3.8-1.3.5 0 .9-.6 1-1.3 0-.6.3-2.3.7-3.7 1.2-4.8 2.1-15.1 1.3-15.6-.4-.3-.8-1.6-.8-3 0-2.8-3.6-8.9-7.1-12-8.4-7.4-20.1-10.5-40.6-10.9-8.3-.2-15.3-.2-15.5 0z"/></svg>